<svg xmlns="http://www.w3.org/2000/svg" viewBox="0 0 1600 900" fill="none">
  <rect width="1600" height="900" fill="#130E0C" />
  <rect x="60" y="60" width="1480" height="780" rx="28" fill="#1B1512" stroke="#5A3D33" stroke-width="2" />
  <circle cx="800" cy="470" r="262" fill="#2A1C16" />
  <circle cx="800" cy="470" r="210" fill="#3C271D" />
  <circle cx="800" cy="470" r="184" fill="#A3562A" />
  <circle cx="730" cy="430" r="44" fill="#F7C86A" />
  <circle cx="856" cy="380" r="34" fill="#E4B14B" />
  <circle cx="930" cy="506" r="38" fill="#F0B44C" />
  <circle cx="696" cy="548" r="40" fill="#E7B55C" />
  <circle cx="820" cy="560" r="58" fill="#7AA347" />
  <circle cx="920" cy="438" r="54" fill="#6E943C" />
  <path d="M602 352C622 326 656 308 694 308C754 308 802 356 802 416C802 472 760 518 706 523" stroke="#F9D683" stroke-width="18" stroke-linecap="round" />
  <path d="M932 338C963 338 988 363 988 394C988 425 963 450 932 450C901 450 876 425 876 394" stroke="#F9D683" stroke-width="16" stroke-linecap="round" />
  <rect x="188" y="196" width="194" height="488" rx="97" fill="#211713" />
  <rect x="1218" y="196" width="194" height="488" rx="97" fill="#211713" />
  <rect x="254" y="262" width="62" height="356" rx="31" fill="#F3D2B2" />
  <rect x="1272" y="262" width="84" height="356" rx="42" fill="#F3D2B2" />
  <rect x="1260" y="232" width="108" height="82" rx="24" fill="#F3D2B2" />
</svg>
